<?xml version="1.0" encoding="UTF-8"?>
<svg width="240px" height="110px" viewBox="0 0 240 110" version="1.1" xmlns="http://www.w3.org/2000/svg" xmlns:xlink="http://www.w3.org/1999/xlink">
    <!-- Generator: Sketch 46.2 (44496) - http://www.bohemiancoding.com/sketch -->
    <title>filterkit-banner</title>
    <desc>Created with Sketch.</desc>
    <defs>
        <path d="M181.429508,66.0330867 L184.146975,44 C189.416672,38.2913674 191.855309,34.2442989 191.462888,31.8587945 C191.070466,29.47329 187.21933,24.9338679 179.909478,18.2405281 L121.27139,4.48144409 L55.50452,8.15468715 L14.0148481,22.3157458 L14.0148481,33.5747115 L18.5520556,66.0330867 L44.7029711,49.6950475 L63.8082057,45.840008 L96.3656777,44 L123.38647,44.8769437 L147.332902,48.0188263 L166.36088,52.3452445 L181.429508,66.0330867 Z" id="path-1"></path>
        <ellipse id="path-2" cx="81.3953488" cy="22" rx="81.3953488" ry="22"></ellipse>
        <ellipse id="path-4" cx="100" cy="66" rx="81.3953488" ry="22"></ellipse>
        <path d="M18.6046512,66 C18.6046512,78.1502645 55.0465901,88 100,88 C144.95341,88 181.395349,78.1502645 181.395349,66 L184.139841,46.2956706 L128.878937,61.4265749 L61.0112418,58.7521078 L23.999234,48.1771971 L15.8908697,46.2956706 L18.6046512,66 Z" id="path-5"></path>
        <path d="M100,67.1578947 C44.771525,67.1578947 0,52.1240879 0,33.5789474 C0,15.0338068 44.771525,0 100,0 C155.228475,0 200,15.0338068 200,33.5789474 C200,52.1240879 155.228475,67.1578947 100,67.1578947 Z M100,55.5789474 C147.522176,55.5789474 186.046512,45.2108047 186.046512,32.4210526 C186.046512,19.6313005 147.522176,9.26315789 100,9.26315789 C52.4778239,9.26315789 13.9534884,19.6313005 13.9534884,32.4210526 C13.9534884,45.2108047 52.4778239,55.5789474 100,55.5789474 Z" id="path-6"></path>
        <path d="M58.9884202,40.1187398 L57.5811483,32.0574817 L65.5019656,30.6863466 L65.1845709,28.8682188 L57.2637537,30.2393538 L56.1201994,23.6887461 L64.7525477,22.1944413 L64.4374868,20.389682 L53.8047966,22.2302565 L56.9880782,40.4650095 L58.9884202,40.1187398 Z M70.568153,38.6332264 L72.5576989,38.4016729 L70.9014975,24.2908989 L68.9119516,24.5224524 L70.568153,38.6332264 Z M68.1566863,21.126686 C68.2452701,21.881417 68.9254982,22.4170135 69.6563518,22.331953 C70.4142741,22.2437422 70.9521353,21.5663782 70.8635514,20.8116472 C70.7765495,20.0703936 70.0963214,19.534797 69.3383991,19.6230079 C68.6075455,19.7080683 68.0696843,20.3854323 68.1566863,21.126686 Z M76.8708493,38.0357322 L78.8655644,37.8535382 L77.0769943,18.4362832 L75.0822792,18.6184772 L76.8708493,38.0357322 Z M82.9170438,23.3688308 L80.9728949,23.499655 L81.0877353,25.1919304 L83.0318842,25.0611062 L83.6161921,33.6714034 C83.8017742,36.4061204 84.5135247,37.6366282 87.7628366,37.4179779 C88.2386772,37.385958 88.710843,37.2997852 88.9120185,37.2454478 L88.800853,35.6073252 C88.5987588,35.6481245 88.3948271,35.6618473 88.150109,35.6783147 C86.3419146,35.7999904 85.7415066,35.4051918 85.6229914,33.6587636 L85.0304149,24.9266225 L87.9398406,24.7308436 L87.8250002,23.0385682 L84.9155745,23.2343471 L84.6739504,19.6737997 L82.6754196,19.8082834 L82.9170438,23.3688308 Z M97.2336981,37.2672834 C93.570375,37.3935229 91.2737252,34.8658436 91.1342274,30.8517991 L91.0776743,29.2244838 C90.9471307,25.4680975 92.9247424,22.7388167 96.6289204,22.6111693 C100.278625,22.4853991 102.494508,25.0430161 102.631649,28.9892558 L102.675007,30.2368642 L93.1421956,30.5653685 L93.1520924,30.8501487 C93.2524742,33.7386334 94.7634067,35.6281059 97.2419375,35.5426948 C99.0395533,35.4807483 100.137826,34.5196517 100.540102,33.148069 L102.569229,33.0781445 C102.117289,35.3746883 100.325053,37.1607541 97.2336981,37.2672834 Z M93.0823435,28.8431264 L100.599646,28.5840773 L100.598232,28.5433944 C100.51246,26.0752995 98.9494105,24.255509 96.6887725,24.3334114 C94.4008979,24.4122525 92.9956287,26.3479096 93.0809297,28.8024436 L93.0823435,28.8431264 Z M106.382318,37.1953104 L108.385177,37.2254775 L108.519339,28.3930174 C108.55087,26.3171858 109.434381,24.6748762 111.995862,24.7134573 C112.418233,24.719819 112.867649,24.7401588 113.098654,24.78435 L113.126888,22.9255988 C112.854802,22.8943594 112.555466,22.8627096 112.269343,22.8584 C110.157485,22.8265912 109.077638,23.9366889 108.627627,24.8527137 L108.573128,24.8518928 L108.600949,23.0202767 L106.59809,22.9901096 L106.382318,37.1953104 Z M129.798303,19.648176 L127.348066,19.5373782 L118.544945,28.3214579 L118.46327,28.3177647 L118.881137,19.1545103 L116.852886,19.0627943 L116.009735,37.5519645 L118.037986,37.6436804 L118.342114,30.9745663 L120.798426,28.5591892 L126.722714,38.0363971 L129.336299,38.1545814 L122.386687,27.2319537 L129.798303,19.648176 Z M131.626519,38.7879241 L133.619942,38.9836444 L135.019845,24.845376 L133.026422,24.6496556 L131.626519,38.7879241 Z M133.014795,21.1716205 C132.939919,21.9278221 133.489983,22.5953985 134.222261,22.6672958 C134.98166,22.7418559 135.652059,22.1941083 135.726934,21.4379068 C135.800472,20.6952088 135.250409,20.0276324 134.49101,19.9530723 C133.758732,19.881175 133.088333,20.4289226 133.014795,21.1716205 Z M140.350889,25.510324 L138.416476,25.2767465 L138.211437,26.9605475 L140.14585,27.194125 L139.102609,35.7613041 C138.771265,38.4823265 139.239334,39.8236816 142.472374,40.2140664 C142.945832,40.2712357 143.425851,40.2745234 143.633683,40.2586133 L143.832161,38.628694 C143.62597,38.6311337 143.423059,38.6066325 143.179567,38.5772312 C141.380427,38.3599877 140.864768,37.8603315 141.076369,36.122649 L142.134372,27.4342361 L145.029228,27.7837857 L145.234268,26.0999847 L142.339412,25.7504352 L142.770815,22.207718 L140.782292,21.9676069 L140.350889,25.510324 Z" id="path-7"></path>
    </defs>
    <g id="Page-1" stroke="none" stroke-width="1" fill="none" fill-rule="evenodd">
        <g id="filterkit-banner">
            <g id="Filter" transform="translate(20.000000, 11.000000)">
                <g stroke-width="1" fill-rule="evenodd">
                    <g id="Path-2">
                        <use fill="#F5A623" xlink:href="#path-1"></use>
                        <use fill-opacity="0.116423234" fill="#B8B8B8" xlink:href="#path-1"></use>
                    </g>
                    <g id="Group" transform="translate(18.604651, 44.000000)">
                        <mask id="mask-3" fill="white">
                            <use xlink:href="#path-2"></use>
                        </mask>
                        <use id="Mask" stroke-opacity="0.641304348" stroke="#F5A623" fill-opacity="0.05" fill="#000000" xlink:href="#path-2"></use>
                        <g id="Grid" mask="url(#mask-3)" stroke-linecap="square" stroke-opacity="0.641304348">
                            <g transform="translate(25.581395, -6.947368)">
                                <g id="Group" stroke="none" stroke-width="1" fill-rule="evenodd" transform="translate(-25.596154, 0.000000)">
                                    <path d="M89.5865385,1.16666667 L61.6634615,19.8333333" id="Line" stroke="#F5A623" stroke-width="0.5"></path>
                                    <path d="M94.2403846,1.16666667 L66.3173077,19.8333333" id="Line" stroke="#F5A623" stroke-width="0.5"></path>
                                    <path d="M98.8942308,1.16666667 L70.9711538,19.8333333" id="Line" stroke="#F5A623" stroke-width="0.5"></path>
                                    <path d="M103.548077,1.16666667 L75.625,19.8333333" id="Line" stroke="#F5A623" stroke-width="0.5"></path>
                                    <path d="M108.201923,1.16666667 L80.2788462,19.8333333" id="Line" stroke="#F5A623" stroke-width="0.5"></path>
                                    <path d="M112.855769,1.16666667 L84.9326923,19.8333333" id="Line" stroke="#F5A623" stroke-width="0.5"></path>
                                    <path d="M117.509615,1.16666667 L89.5865385,19.8333333" id="Line" stroke="#F5A623" stroke-width="0.5"></path>
                                    <path d="M122.163462,1.16666667 L94.2403846,19.8333333" id="Line" stroke="#F5A623" stroke-width="0.5"></path>
                                    <path d="M126.817308,1.16666667 L98.8942308,19.8333333" id="Line" stroke="#F5A623" stroke-width="0.5"></path>
                                    <path d="M131.471154,1.16666667 L103.548077,19.8333333" id="Line" stroke="#F5A623" stroke-width="0.5"></path>
                                    <path d="M136.125,1.16666667 L108.201923,19.8333333" id="Line" stroke="#F5A623" stroke-width="0.5"></path>
                                    <path d="M140.778846,1.16666667 L112.855769,19.8333333" id="Line" stroke="#F5A623" stroke-width="0.5"></path>
                                    <path d="M145.432692,1.16666667 L117.509615,19.8333333" id="Line" stroke="#F5A623" stroke-width="0.5"></path>
                                    <path d="M150.086538,1.16666667 L122.163462,19.8333333" id="Line" stroke="#F5A623" stroke-width="0.5"></path>
                                    <path d="M154.740385,1.16666667 L126.817308,19.8333333" id="Line" stroke="#F5A623" stroke-width="0.5"></path>
                                    <path d="M159.394231,1.16666667 L131.471154,19.8333333" id="Line" stroke="#F5A623" stroke-width="0.5"></path>
                                    <path d="M164.048077,1.16666667 L136.125,19.8333333" id="Line" stroke="#F5A623" stroke-width="0.5"></path>
                                    <path d="M168.701923,1.16666667 L140.778846,19.8333333" id="Line" stroke="#F5A623" stroke-width="0.5"></path>
                                    <path d="M70.9711538,1.16666667 L43.0480769,19.8333333" id="Line" stroke="#F5A623" stroke-width="0.5"></path>
                                    <path d="M75.625,1.16666667 L47.7019231,19.8333333" id="Line" stroke="#F5A623" stroke-width="0.5"></path>
                                    <path d="M80.2788462,1.16666667 L52.3557692,19.8333333" id="Line" stroke="#F5A623" stroke-width="0.5"></path>
                                    <path d="M84.9326923,1.16666667 L57.0096154,19.8333333" id="Line" stroke="#F5A623" stroke-width="0.5"></path>
                                    <path d="M66.3173077,1.16666667 L38.3942308,19.8333333" id="Line" stroke="#F5A623" stroke-width="0.5"></path>
                                    <path d="M61.6634615,1.16666667 L33.7403846,19.8333333" id="Line" stroke="#F5A623" stroke-width="0.5"></path>
                                    <path d="M57.0096154,1.16666667 L29.0865385,19.8333333" id="Line" stroke="#F5A623" stroke-width="0.5"></path>
                                    <path d="M52.3557692,1.16666667 L24.4326923,19.8333333" id="Line" stroke="#F5A623" stroke-width="0.5"></path>
                                    <path d="M47.7019231,1.16666667 L19.7788462,19.8333333" id="Line" stroke="#F5A623" stroke-width="0.5"></path>
                                    <path d="M43.0480769,1.16666667 L15.125,19.8333333" id="Line" stroke="#F5A623" stroke-width="0.5"></path>
                                    <path d="M38.3942308,1.16666667 L10.4711538,19.8333333" id="Line" stroke="#F5A623" stroke-width="0.5"></path>
                                    <path d="M33.7403846,1.16666667 L5.81730769,19.8333333" id="Line" stroke="#F5A623" stroke-width="0.5"></path>
                                    <path d="M29.0865385,1.16666667 L1.16346154,19.8333333" id="Line" stroke="#F5A623" stroke-width="0.5"></path>
                                </g>
                                <path d="M147.759615,1.16666667 L119.836538,19.8333333" id="Line" stroke="#F5A623" stroke-width="0.5"></path>
                            </g>
                        </g>
                        <g id="Grid" mask="url(#mask-3)" stroke-linecap="square" stroke-opacity="0.641304348">
                            <g transform="translate(74.418605, 3.473684) scale(-1, 1) translate(-74.418605, -3.473684) translate(13.953488, -6.947368)">
                                <g id="Group" stroke="none" stroke-width="1" fill-rule="evenodd" transform="translate(-25.596154, 0.000000)">
                                    <path d="M89.5865385,1.16666667 L61.6634615,19.8333333" id="Line" stroke="#F5A623" stroke-width="0.5"></path>
                                    <path d="M94.2403846,1.16666667 L66.3173077,19.8333333" id="Line" stroke="#F5A623" stroke-width="0.5"></path>
                                    <path d="M98.8942308,1.16666667 L70.9711538,19.8333333" id="Line" stroke="#F5A623" stroke-width="0.5"></path>
                                    <path d="M103.548077,1.16666667 L75.625,19.8333333" id="Line" stroke="#F5A623" stroke-width="0.5"></path>
                                    <path d="M108.201923,1.16666667 L80.2788462,19.8333333" id="Line" stroke="#F5A623" stroke-width="0.5"></path>
                                    <path d="M112.855769,1.16666667 L84.9326923,19.8333333" id="Line" stroke="#F5A623" stroke-width="0.5"></path>
                                    <path d="M117.509615,1.16666667 L89.5865385,19.8333333" id="Line" stroke="#F5A623" stroke-width="0.5"></path>
                                    <path d="M122.163462,1.16666667 L94.2403846,19.8333333" id="Line" stroke="#F5A623" stroke-width="0.5"></path>
                                    <path d="M126.817308,1.16666667 L98.8942308,19.8333333" id="Line" stroke="#F5A623" stroke-width="0.5"></path>
                                    <path d="M131.471154,1.16666667 L103.548077,19.8333333" id="Line" stroke="#F5A623" stroke-width="0.5"></path>
                                    <path d="M136.125,1.16666667 L108.201923,19.8333333" id="Line" stroke="#F5A623" stroke-width="0.5"></path>
                                    <path d="M140.778846,1.16666667 L112.855769,19.8333333" id="Line" stroke="#F5A623" stroke-width="0.5"></path>
                                    <path d="M145.432692,1.16666667 L117.509615,19.8333333" id="Line" stroke="#F5A623" stroke-width="0.5"></path>
                                    <path d="M150.086538,1.16666667 L122.163462,19.8333333" id="Line" stroke="#F5A623" stroke-width="0.5"></path>
                                    <path d="M154.740385,1.16666667 L126.817308,19.8333333" id="Line" stroke="#F5A623" stroke-width="0.5"></path>
                                    <path d="M159.394231,1.16666667 L131.471154,19.8333333" id="Line" stroke="#F5A623" stroke-width="0.5"></path>
                                    <path d="M164.048077,1.16666667 L136.125,19.8333333" id="Line" stroke="#F5A623" stroke-width="0.5"></path>
                                    <path d="M168.701923,1.16666667 L140.778846,19.8333333" id="Line" stroke="#F5A623" stroke-width="0.5"></path>
                                    <path d="M70.9711538,1.16666667 L43.0480769,19.8333333" id="Line" stroke="#F5A623" stroke-width="0.5"></path>
                                    <path d="M75.625,1.16666667 L47.7019231,19.8333333" id="Line" stroke="#F5A623" stroke-width="0.5"></path>
                                    <path d="M80.2788462,1.16666667 L52.3557692,19.8333333" id="Line" stroke="#F5A623" stroke-width="0.5"></path>
                                    <path d="M84.9326923,1.16666667 L57.0096154,19.8333333" id="Line" stroke="#F5A623" stroke-width="0.5"></path>
                                    <path d="M66.3173077,1.16666667 L38.3942308,19.8333333" id="Line" stroke="#F5A623" stroke-width="0.5"></path>
                                    <path d="M61.6634615,1.16666667 L33.7403846,19.8333333" id="Line" stroke="#F5A623" stroke-width="0.5"></path>
                                    <path d="M57.0096154,1.16666667 L29.0865385,19.8333333" id="Line" stroke="#F5A623" stroke-width="0.5"></path>
                                    <path d="M52.3557692,1.16666667 L24.4326923,19.8333333" id="Line" stroke="#F5A623" stroke-width="0.5"></path>
                                    <path d="M47.7019231,1.16666667 L19.7788462,19.8333333" id="Line" stroke="#F5A623" stroke-width="0.5"></path>
                                    <path d="M43.0480769,1.16666667 L15.125,19.8333333" id="Line" stroke="#F5A623" stroke-width="0.5"></path>
                                    <path d="M38.3942308,1.16666667 L10.4711538,19.8333333" id="Line" stroke="#F5A623" stroke-width="0.5"></path>
                                    <path d="M33.7403846,1.16666667 L5.81730769,19.8333333" id="Line" stroke="#F5A623" stroke-width="0.5"></path>
                                    <path d="M29.0865385,1.16666667 L1.16346154,19.8333333" id="Line" stroke="#F5A623" stroke-width="0.5"></path>
                                </g>
                                <path d="M147.759615,1.16666667 L119.836538,19.8333333" id="Line" stroke="#F5A623" stroke-width="0.5"></path>
                            </g>
                        </g>
                    </g>
                    <g id="Oval">
                        <use stroke="#FFFFFF" xlink:href="#path-4"></use>
                        <use stroke-opacity="0.641304348" stroke="#F5A623" xlink:href="#path-4"></use>
                    </g>
                    <polyline id="Path-2" points="181.429508 66.0330867 186.089086 33.5747115 189.6849 43.8423205 137.408467 60.1782579 59.7553441 62.5263158 11.4870557 42.7801158 14.0148481 33.5747115 18.5520556 66.0330867"></polyline>
                    <g id="Oval">
                        <use stroke="#FFFFFF" fill="#F5A623" fill-rule="evenodd" xlink:href="#path-5"></use>
                        <use stroke-opacity="0.641304348" stroke="#F5A623" xlink:href="#path-5"></use>
                    </g>
                    <g id="Combined-Shape">
                        <use stroke="#FFFFFF" fill="#F5A623" fill-rule="evenodd" xlink:href="#path-6"></use>
                        <use stroke-opacity="0.641304348" stroke="#F5A623" xlink:href="#path-6"></use>
                    </g>
                </g>
                <path d="M39.5292612,44 C59.0199542,39.2899665 79.6100707,37.0006063 101.299611,37.1319195 C122.989151,37.2632327 143.579268,39.5525929 163.06996,44" id="Path-3"></path>
                <g id="FilterKit" fill-rule="evenodd" fill-opacity="0.641304348">
                    <use fill="#FFFFFF" xlink:href="#path-7"></use>
                    <use fill="#F9B42D" xlink:href="#path-7"></use>
                </g>
            </g>
        </g>
    </g>
</svg>