<?xml version="1.0" encoding="UTF-8"?>
<svg width="120px" height="120px" viewBox="0 0 120 120" version="1.1" xmlns="http://www.w3.org/2000/svg" xmlns:xlink="http://www.w3.org/1999/xlink" style="background: #FFFFFF;">
    <!-- Generator: Sketch 46.2 (44496) - http://www.bohemiancoding.com/sketch -->
    <title>filterkit-icon</title>
    <desc>Created with Sketch.</desc>
    <defs>
        <path d="M40.7999992,0 C27.5,0 23.25,-9.33655997e-09 17.25,2 C10.1800003,4.5 4.5,10.1800003 2,17.25 C0,23.25 0,27.5 0,40.7999992 C0,40.7999992 7.42793205e-08,79.1999969 0,79.1999969 C7.42793205e-08,92.5 5.95996354e-08,96.75 2,102.75 C4.50463867,109.82 10.1800003,115.5 17.25,118 C23.25,120 27.5,120 40.7999992,120 L79.1999969,120 C92.5,120 96.75,120 102.75,118 C109.82,115.5 115.5,109.82 118,102.75 C120,96.75 120,92.5 120,79.1999969 L120,40.7999992 C120,27.5 120,23.25 118,17.25 C115.5,10.25 109.739998,4.5 102.739998,2 C96.7399979,5.60291369e-09 92.5,2.11065014e-08 79.1999969,0 C86.1999969,2.11065014e-08 40.7999992,0 40.7999992,0 Z" id="path-1"></path>
        <path d="M78.0146884,28.5142875 L79.1831994,19 C81.4491688,16.5349087 82.4977829,14.7873109 82.3290417,13.7572067 C82.1603005,12.7271025 80.5043118,10.7668975 77.3610756,7.87659167 L52.1466978,1.93516904 L23.8669436,3.52134218 L6.02638468,9.63634478 L6.02638468,14.4981709 L7.9773839,28.5142875 L19.2222776,21.4592251 L27.4375285,19.7945489 L41.4372414,19 L53.056182,19.3786802 L63.3531481,20.7354023 L71.5351782,22.6036283 L78.0146884,28.5142875 Z" id="path-2"></path>
        <ellipse id="path-3" cx="35" cy="9.5" rx="35" ry="9.5"></ellipse>
        <ellipse id="path-5" cx="43" cy="28.5" rx="35" ry="9.5"></ellipse>
        <path d="M8,28.5 C8,33.7467051 23.6700338,38 43,38 C62.3299662,38 78,33.7467051 78,28.5 L79.1801317,19.9913123 L55.417943,26.5251119 L26.234834,25.3702284 L10.3196706,20.8037896 L6.83307395,19.9913123 L8,28.5 Z" id="path-6"></path>
        <path d="M43,29 C19.2517558,29 0,22.5081289 0,14.5 C0,6.49187113 19.2517558,0 43,0 C66.7482442,0 86,6.49187113 86,14.5 C86,22.5081289 66.7482442,29 43,29 Z M43,24 C63.4345357,24 80,19.5228475 80,14 C80,8.4771525 63.4345357,4 43,4 C22.5654643,4 6,8.4771525 6,14 C6,19.5228475 22.5654643,24 43,24 Z" id="path-7"></path>
        <path d="M25.3650207,17.3240013 L24.7598938,13.8430035 L28.1658452,13.2509224 L28.0293655,12.4658217 L24.6234141,13.0579028 L24.1316857,10.2292313 L27.8435955,9.58396328 L27.7081193,8.80463542 L23.1360625,9.59942896 L24.5048736,17.4735268 L25.3650207,17.3240013 Z M30.3443058,16.6825296 L31.1998105,16.5825406 L30.4876439,10.4892518 L29.6321392,10.5892408 L30.3443058,16.6825296 Z M29.3073751,9.12288713 C29.3454662,9.44879369 29.6379642,9.68007401 29.9522313,9.64334336 C30.2781378,9.60525231 30.5094182,9.31275422 30.4713271,8.98684766 C30.4339163,8.66676086 30.1414182,8.43548054 29.8155116,8.47357159 C29.5012446,8.51030224 29.2699643,8.80280032 29.3073751,9.12288713 Z M33.0544652,16.4245207 L33.9121927,16.345846 L33.1431076,7.96112229 L32.2853801,8.03979697 L33.0544652,16.4245207 Z M35.6543288,10.091086 L34.8183448,10.1475783 L34.8677262,10.8783336 L35.7037102,10.8218413 L35.9549626,14.5399242 C36.0347629,15.7208247 36.3408156,16.2521804 37.7380197,16.1577632 C37.9426312,16.1439364 38.1456625,16.1067254 38.232168,16.0832616 L38.1843668,15.3758904 C38.0974663,15.3935083 38.0097756,15.3994341 37.9045469,15.406545 C37.1270233,15.4590867 36.8688479,15.2886055 36.8178863,14.5344661 L36.5630784,10.7637688 L37.8141315,10.6792279 L37.7647501,9.94847264 L36.5136971,10.0330135 L36.4097987,8.49550442 L35.5504304,8.55357691 L35.6543288,10.091086 Z M41.8104902,16.0926905 C40.2352613,16.1472031 39.2477018,15.0557052 39.1877178,13.3223678 L39.1633999,12.6196634 C39.1072662,10.9975876 39.9576392,9.8190345 41.5504358,9.76391403 C43.1198088,9.70960416 44.0726384,10.8140297 44.1316091,12.5180877 L44.1502528,13.0568277 L40.0511441,13.1986819 L40.0553997,13.3216551 C40.0985639,14.5689553 40.7482649,15.3848639 41.8140331,15.3479819 C42.5870079,15.3212322 43.059265,14.9062132 43.2322438,14.3139389 L44.1047684,14.2837442 C43.9104345,15.2754336 43.1397726,16.0466893 41.8104902,16.0926905 Z M40.0254077,12.4549864 L43.2578477,12.3431243 L43.2572398,12.3255567 C43.2203577,11.2597884 42.5482465,10.4739698 41.5761722,10.5076095 C40.5923861,10.5416545 39.9881203,11.3775064 40.0247998,12.4374188 L40.0254077,12.4549864 Z M45.7443966,16.0616113 L46.6056262,16.074638 L46.6633159,12.2606211 C46.6768743,11.3642393 47.056784,10.6550602 48.1582205,10.6717202 C48.3398403,10.6744673 48.533089,10.6832504 48.6324211,10.702333 L48.6445616,9.89969041 C48.5275648,9.88620066 48.3988505,9.87253368 48.2758177,9.87067272 C47.3677184,9.85693709 46.9033843,10.3362975 46.7098798,10.7318537 L46.6864449,10.7314992 L46.6984082,9.94057403 L45.8371786,9.92754733 L45.7443966,16.0616113 Z M55.8132701,8.48443963 L54.7596683,8.43659513 L50.9743264,12.2297205 L50.9392063,12.2281257 L51.118889,8.27126579 L50.2467409,8.23166117 L49.8841859,16.215621 L50.756334,16.2552256 L50.887109,13.3753809 L51.9433233,12.3323772 L54.4907668,16.4248078 L55.6146087,16.475842 L52.6262754,11.7592528 L55.8132701,8.48443963 Z M56.5994034,16.7493308 L57.456575,16.8338465 L58.0585332,10.7286851 L57.2013616,10.6441694 L56.5994034,16.7493308 Z M57.1963617,9.14229068 C57.1641653,9.46883227 57.4006927,9.75710388 57.715572,9.78815044 C58.0421136,9.82034687 58.3303852,9.58381951 58.3625817,9.25727792 C58.3942032,8.93656744 58.1576758,8.64829582 57.8311342,8.6160994 C57.5162548,8.58505284 57.2279832,8.8215802 57.1963617,9.14229068 Z M60.3508824,11.0158217 L59.5190847,10.9149587 L59.4309177,11.6420546 L60.2627154,11.7429176 L59.8141219,15.4423813 C59.671644,16.6173682 59.8729138,17.1965898 61.263121,17.365165 C61.4667079,17.3898518 61.6731161,17.3912715 61.7624836,17.3844012 L61.8478292,16.6805724 C61.759167,16.6816259 61.6719155,16.6710459 61.5672137,16.6583498 C60.7935837,16.5645402 60.5718503,16.3487795 60.6628386,15.5984166 L61.1177801,11.846602 L62.3625682,11.9975438 L62.4507352,11.270448 L61.2059471,11.1195061 L61.3914504,9.58969641 L60.5363857,9.48601206 L60.3508824,11.0158217 Z" id="path-8"></path>
    </defs>
    <g id="Page-1" stroke="none" stroke-width="1" fill="none" fill-rule="evenodd">
        <g id="filterkit-icon">
            <g id="Grid">
                <g id="App-icon">
                    <use fill="#FFFFFF" fill-rule="evenodd" xlink:href="#path-1"></use>
                    <path stroke-opacity="0.641304348" stroke="#F5A623" stroke-width="1" d="M40.7999992,0.5 L60.3667999,0.500000007 L75.4242854,0.500000009 L79.4274738,0.500000006 L79.8223163,0.500000005 L79.9136954,0.500000004 L79.9316695,0.500000004 L79.9332177,0.500000004 L79.9335463,0.500000004 L79.9335777,0.500000004 C79.932942,-0.499999996 79.932942,-0.499999996 79.9307074,-0.499999996 L79.1999969,-0.5 L79.1999969,0.5 C92.6811314,0.500000021 95.6102346,0.634929068 99.786046,1.6597644 C100.688432,1.88122969 101.603373,2.14817141 102.581884,2.47434165 C109.434256,4.92173739 115.080834,10.5629419 117.529129,17.4181682 C117.850524,18.3827097 118.11666,19.2945927 118.337633,20.1940594 C119.364734,24.374854 119.5,27.3076711 119.5,40.7999992 L119.5,79.1999969 C119.5,92.6923292 119.364734,95.6251465 118.337633,99.8059415 C118.11666,100.705408 117.850524,101.617291 117.525658,102.591886 C115.078947,109.510939 109.510939,115.078947 102.583311,117.528603 C101.617291,117.850524 100.705408,118.11666 99.8059415,118.337633 C95.6251465,119.364734 92.6923292,119.5 79.1999969,119.5 L40.7999992,119.5 C27.3076711,119.5 24.374854,119.364734 20.1940594,118.337633 C19.2945927,118.11666 18.3827097,117.850524 17.4081139,117.525658 C10.4916487,115.079862 4.92649758,109.513477 2.47129934,102.583036 C2.14947651,101.617291 1.88333994,100.705408 1.66236689,99.8059415 C0.635265672,95.6251467 0.500000075,92.6923292 0.5,79.1999987 C0.500000023,77.999997 0.500000023,77.999997 0.500000031,73.1999973 L0.500000028,59.9999981 L0.500000017,50.7555542 L0.500000005,43.6444435 L0.5,40.7999992 C0.5,27.3076711 0.635265559,24.374854 1.66236662,20.1940594 C1.88333973,19.2945927 2.14947638,18.3827097 2.47434165,17.4081139 C4.92105297,10.4890612 10.4890612,4.92105297 17.416689,2.47139661 C18.3827097,2.14947638 19.2945927,1.88333973 20.1940594,1.66236662 C24.374854,0.635265559 27.3076711,0.5 40.7999991,0.5 Z M79.9335455,-0.499858679 L79.9335768,0.500000004 L79.9307074,0.500000004 L79.1999969,0.5 L79.1999969,-0.5 C79.4480326,-0.5 79.6925243,-0.499954477 79.9335455,-0.499858679 Z"></path>
                </g>
            </g>
            <g id="Filter" transform="translate(17.000000, 41.000000)">
                <g stroke-width="1" fill-rule="evenodd">
                    <g id="Path-2">
                        <use fill="#F5A623" xlink:href="#path-2"></use>
                        <use fill-opacity="0.116423234" fill="#B8B8B8" xlink:href="#path-2"></use>
                    </g>
                    <g id="Group" transform="translate(8.000000, 19.000000)">
                        <mask id="mask-4" fill="white">
                            <use xlink:href="#path-3"></use>
                        </mask>
                        <use id="Mask" stroke-opacity="0.641304348" stroke="#F5A623" fill-opacity="0.05" fill="#000000" xlink:href="#path-3"></use>
                        <g id="Grid" mask="url(#mask-4)" stroke-linecap="square" stroke-opacity="0.641304348">
                            <g transform="translate(11.000000, -3.000000)">
                                <g id="Group" stroke="none" stroke-width="1" fill-rule="evenodd" transform="translate(-11.000000, 0.000000)">
                                    <path d="M38.5,0.5 L26.5,8.5" id="Line" stroke="#F5A623" stroke-width="0.5"></path>
                                    <path d="M40.5,0.5 L28.5,8.5" id="Line" stroke="#F5A623" stroke-width="0.5"></path>
                                    <path d="M42.5,0.5 L30.5,8.5" id="Line" stroke="#F5A623" stroke-width="0.5"></path>
                                    <path d="M44.5,0.5 L32.5,8.5" id="Line" stroke="#F5A623" stroke-width="0.5"></path>
                                    <path d="M46.5,0.5 L34.5,8.5" id="Line" stroke="#F5A623" stroke-width="0.5"></path>
                                    <path d="M48.5,0.5 L36.5,8.5" id="Line" stroke="#F5A623" stroke-width="0.5"></path>
                                    <path d="M50.5,0.5 L38.5,8.5" id="Line" stroke="#F5A623" stroke-width="0.5"></path>
                                    <path d="M52.5,0.5 L40.5,8.5" id="Line" stroke="#F5A623" stroke-width="0.5"></path>
                                    <path d="M54.5,0.5 L42.5,8.5" id="Line" stroke="#F5A623" stroke-width="0.5"></path>
                                    <path d="M56.5,0.5 L44.5,8.5" id="Line" stroke="#F5A623" stroke-width="0.5"></path>
                                    <path d="M58.5,0.5 L46.5,8.5" id="Line" stroke="#F5A623" stroke-width="0.5"></path>
                                    <path d="M60.5,0.5 L48.5,8.5" id="Line" stroke="#F5A623" stroke-width="0.5"></path>
                                    <path d="M62.5,0.5 L50.5,8.5" id="Line" stroke="#F5A623" stroke-width="0.5"></path>
                                    <path d="M64.5,0.5 L52.5,8.5" id="Line" stroke="#F5A623" stroke-width="0.5"></path>
                                    <path d="M66.5,0.5 L54.5,8.5" id="Line" stroke="#F5A623" stroke-width="0.5"></path>
                                    <path d="M68.5,0.5 L56.5,8.5" id="Line" stroke="#F5A623" stroke-width="0.5"></path>
                                    <path d="M70.5,0.5 L58.5,8.5" id="Line" stroke="#F5A623" stroke-width="0.5"></path>
                                    <path d="M72.5,0.5 L60.5,8.5" id="Line" stroke="#F5A623" stroke-width="0.5"></path>
                                    <path d="M30.5,0.5 L18.5,8.5" id="Line" stroke="#F5A623" stroke-width="0.5"></path>
                                    <path d="M32.5,0.5 L20.5,8.5" id="Line" stroke="#F5A623" stroke-width="0.5"></path>
                                    <path d="M34.5,0.5 L22.5,8.5" id="Line" stroke="#F5A623" stroke-width="0.5"></path>
                                    <path d="M36.5,0.5 L24.5,8.5" id="Line" stroke="#F5A623" stroke-width="0.5"></path>
                                    <path d="M28.5,0.5 L16.5,8.5" id="Line" stroke="#F5A623" stroke-width="0.5"></path>
                                    <path d="M26.5,0.5 L14.5,8.5" id="Line" stroke="#F5A623" stroke-width="0.5"></path>
                                    <path d="M24.5,0.5 L12.5,8.5" id="Line" stroke="#F5A623" stroke-width="0.5"></path>
                                    <path d="M22.5,0.5 L10.5,8.5" id="Line" stroke="#F5A623" stroke-width="0.5"></path>
                                    <path d="M20.5,0.5 L8.5,8.5" id="Line" stroke="#F5A623" stroke-width="0.5"></path>
                                    <path d="M18.5,0.5 L6.5,8.5" id="Line" stroke="#F5A623" stroke-width="0.5"></path>
                                    <path d="M16.5,0.5 L4.5,8.5" id="Line" stroke="#F5A623" stroke-width="0.5"></path>
                                    <path d="M14.5,0.5 L2.5,8.5" id="Line" stroke="#F5A623" stroke-width="0.5"></path>
                                    <path d="M12.5,0.5 L0.5,8.5" id="Line" stroke="#F5A623" stroke-width="0.5"></path>
                                </g>
                                <path d="M63.5,0.5 L51.5,8.5" id="Line" stroke="#F5A623" stroke-width="0.5"></path>
                            </g>
                        </g>
                        <g id="Grid" mask="url(#mask-4)" stroke-linecap="square" stroke-opacity="0.641304348">
                            <g transform="translate(32.000000, 1.500000) scale(-1, 1) translate(-32.000000, -1.500000) translate(6.000000, -3.000000)">
                                <g id="Group" stroke="none" stroke-width="1" fill-rule="evenodd" transform="translate(-11.000000, 0.000000)">
                                    <path d="M38.5,0.5 L26.5,8.5" id="Line" stroke="#F5A623" stroke-width="0.5"></path>
                                    <path d="M40.5,0.5 L28.5,8.5" id="Line" stroke="#F5A623" stroke-width="0.5"></path>
                                    <path d="M42.5,0.5 L30.5,8.5" id="Line" stroke="#F5A623" stroke-width="0.5"></path>
                                    <path d="M44.5,0.5 L32.5,8.5" id="Line" stroke="#F5A623" stroke-width="0.5"></path>
                                    <path d="M46.5,0.5 L34.5,8.5" id="Line" stroke="#F5A623" stroke-width="0.5"></path>
                                    <path d="M48.5,0.5 L36.5,8.5" id="Line" stroke="#F5A623" stroke-width="0.5"></path>
                                    <path d="M50.5,0.5 L38.5,8.5" id="Line" stroke="#F5A623" stroke-width="0.5"></path>
                                    <path d="M52.5,0.5 L40.5,8.5" id="Line" stroke="#F5A623" stroke-width="0.5"></path>
                                    <path d="M54.5,0.5 L42.5,8.5" id="Line" stroke="#F5A623" stroke-width="0.5"></path>
                                    <path d="M56.5,0.5 L44.5,8.5" id="Line" stroke="#F5A623" stroke-width="0.5"></path>
                                    <path d="M58.5,0.5 L46.5,8.5" id="Line" stroke="#F5A623" stroke-width="0.5"></path>
                                    <path d="M60.5,0.5 L48.5,8.5" id="Line" stroke="#F5A623" stroke-width="0.5"></path>
                                    <path d="M62.5,0.5 L50.5,8.5" id="Line" stroke="#F5A623" stroke-width="0.5"></path>
                                    <path d="M64.5,0.5 L52.5,8.5" id="Line" stroke="#F5A623" stroke-width="0.5"></path>
                                    <path d="M66.5,0.5 L54.5,8.5" id="Line" stroke="#F5A623" stroke-width="0.5"></path>
                                    <path d="M68.5,0.5 L56.5,8.5" id="Line" stroke="#F5A623" stroke-width="0.5"></path>
                                    <path d="M70.5,0.5 L58.5,8.5" id="Line" stroke="#F5A623" stroke-width="0.5"></path>
                                    <path d="M72.5,0.5 L60.5,8.5" id="Line" stroke="#F5A623" stroke-width="0.5"></path>
                                    <path d="M30.5,0.5 L18.5,8.5" id="Line" stroke="#F5A623" stroke-width="0.5"></path>
                                    <path d="M32.5,0.5 L20.5,8.5" id="Line" stroke="#F5A623" stroke-width="0.5"></path>
                                    <path d="M34.5,0.5 L22.5,8.5" id="Line" stroke="#F5A623" stroke-width="0.5"></path>
                                    <path d="M36.5,0.5 L24.5,8.5" id="Line" stroke="#F5A623" stroke-width="0.5"></path>
                                    <path d="M28.5,0.5 L16.5,8.5" id="Line" stroke="#F5A623" stroke-width="0.5"></path>
                                    <path d="M26.5,0.5 L14.5,8.5" id="Line" stroke="#F5A623" stroke-width="0.5"></path>
                                    <path d="M24.5,0.5 L12.5,8.5" id="Line" stroke="#F5A623" stroke-width="0.5"></path>
                                    <path d="M22.5,0.5 L10.5,8.5" id="Line" stroke="#F5A623" stroke-width="0.5"></path>
                                    <path d="M20.5,0.5 L8.5,8.5" id="Line" stroke="#F5A623" stroke-width="0.5"></path>
                                    <path d="M18.5,0.5 L6.5,8.5" id="Line" stroke="#F5A623" stroke-width="0.5"></path>
                                    <path d="M16.5,0.5 L4.5,8.5" id="Line" stroke="#F5A623" stroke-width="0.5"></path>
                                    <path d="M14.5,0.5 L2.5,8.5" id="Line" stroke="#F5A623" stroke-width="0.5"></path>
                                    <path d="M12.5,0.5 L0.5,8.5" id="Line" stroke="#F5A623" stroke-width="0.5"></path>
                                </g>
                                <path d="M63.5,0.5 L51.5,8.5" id="Line" stroke="#F5A623" stroke-width="0.5"></path>
                            </g>
                        </g>
                    </g>
                    <g id="Oval">
                        <use stroke="#FFFFFF" xlink:href="#path-5"></use>
                        <use stroke-opacity="0.641304348" stroke="#F5A623" xlink:href="#path-5"></use>
                    </g>
                    <polyline id="Path-2" points="78.0146884 28.5142875 80.018307 14.4981709 81.5645071 18.9319111 59.085641 25.9860659 25.694798 27 4.93943397 18.4732318 6.02638468 14.4981709 7.9773839 28.5142875"></polyline>
                    <g id="Oval">
                        <use stroke="#FFFFFF" fill="#F5A623" fill-rule="evenodd" xlink:href="#path-6"></use>
                        <use stroke-opacity="0.641304348" stroke="#F5A623" xlink:href="#path-6"></use>
                    </g>
                    <g id="Combined-Shape">
                        <use stroke="#FFFFFF" fill="#F5A623" fill-rule="evenodd" xlink:href="#path-7"></use>
                        <use stroke-opacity="0.641304348" stroke="#F5A623" xlink:href="#path-7"></use>
                    </g>
                </g>
                <path d="M16.9975823,19 C25.3785803,16.9661219 34.2323304,15.9775345 43.5588327,16.034238 C52.8853349,16.0909414 61.739085,17.0795288 70.120083,19" id="Path-3"></path>
                <g id="FilterKit" fill-rule="evenodd" fill-opacity="0.641304348">
                    <use fill="#FFFFFF" xlink:href="#path-8"></use>
                    <use fill="#F9B42D" xlink:href="#path-8"></use>
                </g>
            </g>
        </g>
    </g>
</svg>